<svg xmlns="http://www.w3.org/2000/svg" width="93" height="44" fill="none" viewBox="0 0 93 44">
    <path fill="#000" d="M1.184 43.941v-5.297h1.828c.347 0 .642.033.886.1.247.065.449.16.605.281.159.123.275.27.348.444.073.173.11.368.11.586 0 .124-.018.244-.055.359-.037.112-.094.218-.172.319-.076.097-.174.186-.293.267-.118.08-.258.149-.422.205.728.164 1.092.557 1.092 1.18 0 .224-.043.432-.128.622-.086.19-.21.356-.374.495-.163.137-.365.244-.604.322-.24.078-.513.117-.82.117H1.183zm.985-2.322v1.553h1c.184 0 .336-.022.458-.066.125-.044.224-.102.297-.176.076-.073.13-.158.161-.256.035-.098.052-.202.052-.311 0-.115-.019-.218-.055-.308-.037-.093-.094-.171-.173-.235-.078-.066-.178-.116-.3-.15-.122-.034-.27-.051-.443-.051h-.997zm0-.681h.788c.335 0 .589-.062.762-.184.173-.122.26-.316.26-.582 0-.276-.078-.473-.234-.59-.157-.117-.4-.176-.733-.176h-.843v1.532zM16.22 43.147c.191 0 .36-.032.51-.096.151-.063.278-.152.38-.267.106-.115.185-.254.239-.418.056-.163.084-.346.084-.55v-3.172h.986v3.173c0 .315-.052.607-.154.875-.1.267-.246.497-.436.693-.19.193-.422.344-.693.454-.27.107-.576.161-.915.161-.34 0-.645-.054-.916-.161-.271-.11-.502-.261-.693-.454-.188-.196-.333-.426-.435-.693-.1-.268-.15-.56-.15-.875v-3.173h.985v3.17c0 .202.027.385.08.549.056.163.136.304.238.42.103.116.229.205.378.268.151.064.322.096.513.096zM30.39 39.608c-.027.054-.058.091-.095.113-.034.022-.076.033-.125.033s-.103-.018-.165-.055c-.06-.039-.133-.081-.216-.128-.083-.046-.18-.088-.293-.124-.11-.04-.24-.059-.392-.059-.136 0-.256.017-.359.051-.1.032-.185.077-.256.136-.068.058-.12.13-.154.212-.034.08-.051.17-.051.268 0 .124.034.228.102.311.071.083.164.154.279.213.115.058.245.11.392.157.146.047.295.097.447.15.153.052.304.113.45.183.147.069.277.157.392.264.115.105.207.235.275.389.07.153.106.34.106.56 0 .24-.041.464-.124.674-.08.208-.2.39-.36.546-.156.154-.347.276-.574.366-.228.088-.488.132-.78.132-.17 0-.335-.017-.499-.051-.164-.032-.321-.078-.473-.14-.149-.06-.289-.134-.42-.22-.13-.085-.246-.18-.349-.285l.286-.473c.027-.034.059-.062.095-.084.04-.024.082-.036.128-.036.061 0 .127.025.198.077.071.048.154.103.25.164.097.061.21.118.34.169.132.049.29.073.473.073.28 0 .498-.066.652-.198.154-.134.23-.326.23-.575 0-.139-.035-.253-.106-.34-.068-.088-.16-.162-.275-.22-.114-.061-.245-.113-.392-.154-.146-.042-.295-.087-.446-.136-.152-.048-.3-.107-.447-.175-.147-.069-.277-.158-.392-.268-.115-.11-.208-.247-.279-.41-.068-.166-.102-.37-.102-.612 0-.193.038-.38.113-.564.078-.183.19-.346.337-.487.15-.142.331-.255.546-.341.215-.085.46-.128.736-.128.313 0 .601.049.865.146.264.098.488.235.674.41l-.242.466zM40.721 43.941h-.989v-5.297h.99v5.297zM50.564 38.644c.044 0 .08.003.11.008.03.002.055.01.077.022.024.01.048.025.07.047.022.02.046.047.073.08l2.78 3.543c-.01-.085-.017-.168-.022-.249l-.003-.23v-3.22h.868v5.296h-.51c-.078 0-.142-.012-.194-.036-.05-.025-.1-.069-.15-.132l-2.77-3.528c.008.078.013.157.015.235.005.075.008.145.008.209v3.252h-.868v-5.297h.516zM67.059 38.644v.784H64.71v1.47h1.85v.758h-1.85v1.498h2.349v.787h-3.341v-5.297h3.34zM78.882 39.608c-.027.054-.059.091-.096.113-.034.022-.075.033-.124.033s-.104-.018-.165-.055c-.061-.039-.133-.081-.216-.128-.083-.046-.18-.088-.293-.124-.11-.04-.24-.059-.392-.059-.137 0-.257.017-.36.051-.1.032-.185.077-.255.136-.069.058-.12.13-.154.212-.034.08-.052.17-.052.268 0 .124.035.228.103.311.07.083.164.154.278.213.115.058.246.11.392.157.147.047.296.097.447.15.154.052.304.113.45.183.147.069.278.157.393.264.115.105.206.235.275.389.07.153.106.34.106.56 0 .24-.042.464-.125.674-.08.208-.2.39-.359.546-.156.154-.348.276-.575.366-.227.088-.487.132-.78.132-.169 0-.335-.017-.498-.051-.164-.032-.322-.078-.473-.14-.149-.06-.29-.134-.421-.22-.13-.085-.246-.18-.348-.285l.285-.473c.027-.034.06-.062.096-.084.039-.024.082-.036.128-.036.061 0 .127.025.198.077.07.048.154.103.249.164.098.061.211.118.34.169.132.049.29.073.473.073.281 0 .498-.066.652-.198.154-.134.23-.326.23-.575 0-.139-.034-.253-.105-.34-.069-.088-.16-.162-.275-.22-.115-.061-.246-.113-.392-.154-.147-.042-.296-.087-.447-.136-.151-.048-.3-.107-.447-.175-.146-.069-.277-.158-.392-.268-.115-.11-.207-.247-.278-.41-.069-.166-.103-.37-.103-.612 0-.193.038-.38.114-.564.078-.183.19-.346.337-.487.149-.142.33-.255.546-.341.215-.085.46-.128.736-.128.313 0 .6.049.865.146.263.098.488.235.674.41l-.242.466zM90.942 39.608c-.027.054-.059.091-.095.113-.034.022-.076.033-.125.033s-.104-.018-.165-.055c-.06-.039-.133-.081-.216-.128-.083-.046-.18-.088-.293-.124-.11-.04-.24-.059-.392-.059-.137 0-.256.017-.359.051-.1.032-.185.077-.256.136-.069.058-.12.13-.154.212-.034.08-.051.17-.051.268 0 .124.034.228.102.311.071.083.164.154.279.213.114.058.245.11.392.157.146.047.295.097.447.15.153.052.303.113.45.183.147.069.277.157.392.264.115.105.206.235.275.389.07.153.106.34.106.56 0 .24-.041.464-.124.674-.081.208-.2.39-.36.546-.156.154-.347.276-.575.366-.227.088-.487.132-.78.132-.168 0-.334-.017-.498-.051-.164-.032-.321-.078-.473-.14-.149-.06-.29-.134-.42-.22-.13-.085-.246-.18-.349-.285l.286-.473c.027-.034.058-.062.095-.084.04-.024.082-.036.128-.036.061 0 .127.025.198.077.07.048.154.103.25.164.097.061.21.118.34.169.132.049.29.073.472.073.281 0 .499-.066.652-.198.154-.134.231-.326.231-.575 0-.139-.035-.253-.106-.34-.068-.088-.16-.162-.275-.22-.115-.061-.245-.113-.392-.154-.146-.042-.295-.087-.447-.136-.151-.048-.3-.107-.447-.175-.146-.069-.277-.158-.392-.268-.114-.11-.207-.247-.278-.41-.068-.166-.103-.37-.103-.612 0-.193.038-.38.114-.564.078-.183.19-.346.337-.487.15-.142.331-.255.546-.341.215-.085.46-.128.736-.128.313 0 .601.049.865.146.263.098.488.235.674.41l-.242.466zM72.35 8.417l8.031-.142c-.32 1.067-3.767 12.652-3.767 13.896 0 .747.213 1.03.604 1.03 1.172 0 4.311-6.224 4.772-6.97l-.508 3.914c-1.101 2.524-3.234 5.331-6.29 5.331-2.132 0-3.696-1.244-3.696-3.625 0-3.234 2.7-9.169 2.7-10.946 0-.853-.426-1.137-2.203-1.21l.356-1.278zM78.887.598c1.422 0 2.844 1.173 2.844 2.737 0 1.563-1.422 2.736-2.844 2.736-1.421 0-2.843-1.173-2.843-2.736 0-1.563 1.422-2.737 2.843-2.737z"/>
    <path fill="#000" d="M88.83 8.347h3.84l-.356 1.492h-3.91l-2.736 9.986c-.25.853-.604 2.098-.604 2.986 0 .498.213.96.781.96 1.777 0 3.163-2.986 3.803-4.23l1.172.64c-1.03 2.524-2.878 5.296-5.898 5.296-2.595 0-4.194-2.132-4.194-4.584 0-1.208.249-2.382.568-3.554l2.061-7.5h-2.913l.355-1.492h2.985l1.351-4.904 5.081-.142-1.385 5.046zM0 0h7.55c7.836 0 13.084 5.476 13.084 12.7 0 7.121-5.392 12.63-13.12 12.63H0V0zm5.284 21.03h.863c6.507 0 9.023-3.36 9.023-8.365 0-5.51-3.02-8.365-9.023-8.365h-.863v16.73zM26.675 10.549h.072c1.006-1.445 2.516-2.252 4.386-2.252.719 0 1.437.169 2.084.404l-.61 4.367c-.612-.403-1.33-.604-2.086-.604-3.487 0-3.847 2.889-3.847 5.441v7.425h-5.032V8.835h5.032v1.714h.001zM51.39 17.1c0 5.106-3.738 8.767-9.274 8.767-5.537 0-9.275-3.661-9.275-8.767 0-5.14 3.775-8.802 9.275-8.802S51.39 11.96 51.39 17.1zm-13.444 0c0 2.217 1.582 4.602 4.17 4.602 2.589 0 4.17-2.385 4.17-4.602 0-2.285-1.582-4.636-4.17-4.636-2.589 0-4.17 2.35-4.17 4.636zM57.381 10.347c1.15-1.276 3.02-2.05 4.89-2.05 4.996 0 8.052 4.368 8.052 8.702 0 4.502-2.949 8.869-8.16 8.869-1.798 0-3.703-.74-4.71-2.083h-.072V34.13H52.35V8.835h5.032v1.512zm7.837 6.719c0-2.217-1.582-4.602-4.17-4.602s-4.17 2.385-4.17 4.602c0 2.217 1.581 4.636 4.17 4.636 2.588 0 4.17-2.419 4.17-4.636z"/>
</svg>
